<?xml version="1.0" encoding="UTF-8"?>
<svg width="214px" height="50px" viewBox="0 0 214 50" version="1.1" xmlns="http://www.w3.org/2000/svg" xmlns:xlink="http://www.w3.org/1999/xlink">
    <!-- Generator: Sketch 41.2 (35397) - http://www.bohemiancoding.com/sketch -->
    <title>Combined Shape</title>
    <desc>Created with Sketch.</desc>
    <defs></defs>
    <g id="Page-1" stroke="none" stroke-width="1" fill="none" fill-rule="evenodd">
        <g id="3" transform="translate(-305.000000, -1785.000000)" fill="#FFFFFF">
            <g id="Content" transform="translate(-236.000000, 750.000000)">
                <g id="Products" transform="translate(0.000000, 600.000000)">
                    <g id="Palette" transform="translate(0.000000, 134.000000)">
                        <g id="Info" transform="translate(541.000000, 76.000000)">
                            <path d="M50,250 C50,263.8125 38.8125,275 25,275 C11.1875,275 0,263.8125 0,250 C0,236.1875 11.1875,225 25,225 C38.8125,225 50,236.1875 50,250 Z M28.3333333,237.5 L16.25,237.5 L16.25,262.5 L21.25,262.5 L21.25,255 L28.3333333,255 C33.1666667,255 37.0833333,251.083333 37.0833333,246.25 C37.0833333,241.416667 33.1666667,237.5 28.3333333,237.5 Z M28.3333333,250 L21.25,250 L21.25,242.5 L28.3333333,242.5 C30.3958333,242.5 32.0833333,244.1875 32.0833333,246.25 C32.0833333,248.3125 30.3958333,250 28.3333333,250 Z M66.6666667,258.333333 L66.6666667,241.666667 L74.3333333,241.666667 C77.8958333,241.666667 79.8333333,244.0625 79.8333333,246.9375 C79.8333333,249.791667 77.875,252.1875 74.3333333,252.1875 L70.1666667,252.1875 L70.1666667,258.333333 L66.6666667,258.333333 Z M81.9375,258.333333 L81.9375,246.1875 L85.0625,246.1875 L85.0625,247.791667 C85.9166667,246.770833 87.375,245.895833 88.8541667,245.895833 L88.8541667,248.9375 C88.625,248.895833 88.3541667,248.875 88,248.875 C86.9583333,248.875 85.5833333,249.458333 85.0833333,250.229167 L85.0833333,258.354167 L81.9375,258.354167 L81.9375,258.333333 Z M90.0208333,252.104167 C90.0208333,248.75 92.375,245.895833 96.2708333,245.895833 C100.208333,245.895833 102.5625,248.75 102.5625,252.104167 C102.5625,255.458333 100.208333,258.333333 96.2708333,258.333333 C92.375,258.333333 90.0208333,255.458333 90.0208333,252.104167 Z M113.0625,258.333333 L113.0625,256.520833 C112.125,257.708333 110.854167,258.333333 109.395833,258.333333 C106.416667,258.333333 104.145833,256.083333 104.145833,252.104167 C104.145833,248.25 106.375,245.895833 109.395833,245.895833 C110.791667,245.895833 112.125,246.479167 113.0625,247.708333 L113.0625,241.666667 L116.208333,241.666667 L116.208333,258.333333 L113.0625,258.333333 Z M127.291667,258.333333 L127.291667,256.541667 C126.479167,257.416667 125.0625,258.333333 123.125,258.333333 C120.520833,258.333333 119.291667,256.916667 119.291667,254.604167 L119.291667,246.1875 L122.416667,246.1875 L122.416667,253.375 C122.416667,255.020833 123.270833,255.5625 124.604167,255.5625 C125.8125,255.5625 126.770833,254.895833 127.3125,254.208333 L127.3125,246.1875 L130.4375,246.1875 L130.4375,258.333333 L127.291667,258.333333 Z M132.75,252.104167 C132.75,248.479167 135.395833,245.895833 139.041667,245.895833 C141.479167,245.895833 142.9375,246.958333 143.729167,248.041667 L141.6875,249.958333 C141.125,249.125 140.270833,248.6875 139.1875,248.6875 C137.291667,248.6875 135.979167,250.0625 135.979167,252.125 C135.979167,254.1875 137.3125,255.583333 139.1875,255.583333 C140.270833,255.583333 141.125,255.083333 141.6875,254.291667 L143.729167,256.208333 C142.9375,257.291667 141.479167,258.375 139.041667,258.375 C135.395833,258.333333 132.75,255.75 132.75,252.104167 Z M146.416667,255.0625 L146.416667,248.895833 L144.458333,248.895833 L144.458333,246.166667 L146.416667,246.166667 L146.416667,242.9375 L149.541667,242.9375 L149.541667,246.1875 L151.9375,246.1875 L151.9375,248.916667 L149.541667,248.916667 L149.541667,254.25 C149.541667,255.020833 149.9375,255.583333 150.625,255.583333 C151.083333,255.583333 151.541667,255.416667 151.708333,255.208333 L152.375,257.583333 C151.916667,258 151.083333,258.354167 149.770833,258.354167 C147.5625,258.333333 146.416667,257.208333 146.416667,255.0625 Z M171.895833,258.333333 L171.895833,251.145833 L164.166667,251.145833 L164.166667,258.333333 L160.6875,258.333333 L160.6875,241.666667 L164.166667,241.666667 L164.166667,248.104167 L171.895833,248.104167 L171.895833,241.666667 L175.416667,241.666667 L175.416667,258.333333 L171.895833,258.333333 Z M186.5625,258.333333 L186.5625,256.541667 C185.75,257.416667 184.333333,258.333333 182.395833,258.333333 C179.791667,258.333333 178.5625,256.916667 178.5625,254.604167 L178.5625,246.1875 L181.6875,246.1875 L181.6875,253.375 C181.6875,255.020833 182.541667,255.5625 183.875,255.5625 C185.083333,255.5625 186.041667,254.895833 186.583333,254.208333 L186.583333,246.1875 L189.708333,246.1875 L189.708333,258.333333 L186.5625,258.333333 Z M200.770833,258.333333 L200.770833,250.875 C200.770833,249.229167 199.916667,248.666667 198.583333,248.666667 C197.354167,248.666667 196.416667,249.354167 195.875,250.041667 L195.875,258.333333 L192.75,258.333333 L192.75,246.1875 L195.875,246.1875 L195.875,247.708333 C196.645833,246.833333 198.104167,245.895833 200.020833,245.895833 C202.645833,245.895833 203.895833,247.375 203.895833,249.666667 L203.895833,258.333333 L200.770833,258.333333 Z M207.645833,255.0625 L207.645833,248.895833 L205.6875,248.895833 L205.6875,246.166667 L207.645833,246.166667 L207.645833,242.9375 L210.770833,242.9375 L210.770833,246.1875 L213.166667,246.1875 L213.166667,248.916667 L210.770833,248.916667 L210.770833,254.25 C210.770833,255.020833 211.166667,255.583333 211.854167,255.583333 C212.3125,255.583333 212.770833,255.416667 212.9375,255.208333 L213.604167,257.583333 C213.145833,258 212.3125,258.354167 211,258.354167 C208.791667,258.333333 207.645833,257.208333 207.645833,255.0625 Z M113.0625,254.208333 L113.0625,250.020833 C112.541667,249.229167 111.416667,248.666667 110.395833,248.666667 C108.604167,248.666667 107.375,250.0625 107.375,252.104167 C107.375,254.166667 108.604167,255.5625 110.395833,255.5625 C111.416667,255.5625 112.541667,255 113.0625,254.208333 Z M99.3333333,252.104167 C99.3333333,250.270833 98.25,248.666667 96.2916667,248.666667 C94.3541667,248.666667 93.2708333,250.270833 93.2708333,252.104167 C93.2708333,253.979167 94.3541667,255.5625 96.2916667,255.5625 C98.25,255.5625 99.3333333,253.958333 99.3333333,252.104167 Z M76.2708333,246.9375 C76.2708333,245.5625 75.2083333,244.729167 73.8333333,244.729167 L70.1458333,244.729167 L70.1458333,249.125 L73.8333333,249.125 C75.2083333,249.125 76.2708333,248.291667 76.2708333,246.9375 Z" id="Combined-Shape"></path>
                        </g>
                    </g>
                </g>
            </g>
        </g>
    </g>
</svg>