<?xml version="1.0" encoding="UTF-8"?>
<svg width="2006px" height="554px" viewBox="0 0 2006 554" version="1.1" xmlns="http://www.w3.org/2000/svg" xmlns:xlink="http://www.w3.org/1999/xlink">
    <!-- Generator: Sketch 41.2 (35397) - http://www.bohemiancoding.com/sketch -->
    <title>Combined Shape</title>
    <desc>Created with Sketch.</desc>
    <defs>
        <linearGradient x1="86.0930901%" y1="50%" x2="13.8934645%" y2="50%" id="linearGradient-1">
            <stop stop-color="#FFFFFF" offset="0%"></stop>
            <stop stop-color="#FFCCC4" offset="100%"></stop>
        </linearGradient>
    </defs>
    <g id="Page-1" stroke="none" stroke-width="1" fill="none" fill-rule="evenodd" stroke-linecap="square">
        <path d="M2,85.7720915 C19.8079525,74.170766 39.1129859,47.2201286 79.5141996,47.2924005 L79.5141996,47.2924005 C132.530178,47.1997513 105.877687,167.907365 112.606871,199.51869 C118.320006,232.274086 136.280552,262.186622 162.907732,261.732912 C189.795992,262.186622 214.185578,223.316546 214.5323,204.813517 C214.185578,186.519914 181.066165,91.5166475 203.942645,71.119124 C216.02237,59.3846893 251.984214,101.492484 307.19178,124.067399 C362.51336,146.522635 416.318268,141.609398 434.267639,135.98076 C474.125705,123.523061 497.873865,42.7887056 518.984878,19.4945563 C540.016117,-4.37198796 574.257748,-0.125250508 597.083583,4.93378083 C620.794378,9.81750782 778.855338,43.8973652 787.697372,100.240675 C795.426541,156.780113 788.218488,159.308565 806.229268,169.073432 C823.07045,177.829058 858.705318,153.503005 876.385731,153.18895 C917.798677,152.904863 919.57222,198.460709 980.803877,198.194983 C1008.99072,198.173796 1040.9551,231.915891 1056.25517,273.646274 C1072.51136,315.346675 1076.77946,347.50897 1103.90862,347.773858 C1130.96837,347.50897 1156.48018,316.913923 1163.47542,278.941102 C1169.50336,242.082028 1165.22105,177.829058 1207.15775,178.33938 C1263.44687,177.829058 1267.0053,243.275369 1266.72456,309.386359 C1267.0053,349.042514 1320.02764,362.334634 1346.14697,362.334634 C1372.13721,362.334634 1433.01871,348.427411 1438.80645,313.35748 C1445.73883,277.46308 1447.7887,256.132493 1462.63318,245.84843 C1477.60649,236.255403 1560.93972,256.646483 1568.52972,224.66912 C1577.11979,193.088665 1570.66712,115.842701 1595.00386,93.6221407 C1619.42619,71.9428952 1661.34957,59.3964824 1724.72713,76.4139515 C1787.18704,93.8927982 1775.65811,91.5166475 1798.85472,90.974727 C1804.077,91.0939171 1808.97899,89.0431203 1814,85.7720915 M12,95.7720915 C29.8079525,84.170766 49.1129859,57.2201286 89.5141996,57.2924005 L89.5141996,57.2924005 C142.530178,57.1997513 115.877687,177.907365 122.606871,209.51869 C128.320006,242.274086 146.280552,272.186622 172.907732,271.732912 C199.795992,272.186622 224.185578,233.316546 224.5323,214.813517 C224.185578,196.519914 191.066165,101.516647 213.942645,81.119124 C226.02237,69.3846893 261.984214,111.492484 317.19178,134.067399 C372.51336,156.522635 426.318268,151.609398 444.267639,145.98076 C484.125705,133.523061 507.873865,52.7887056 528.984878,29.4945563 C550.016117,5.62801204 584.257748,9.87474949 607.083583,14.9337808 C630.794378,19.8175078 788.855338,53.8973652 797.697372,110.240675 C805.426541,166.780113 798.218488,169.308565 816.229268,179.073432 C833.07045,187.829058 868.705318,163.503005 886.385731,163.18895 C927.798677,162.904863 929.57222,208.460709 990.803877,208.194983 C1018.99072,208.173796 1050.9551,241.915891 1066.25517,283.646274 C1082.51136,325.346675 1086.77946,357.50897 1113.90862,357.773858 C1140.96837,357.50897 1166.48018,326.913923 1173.47542,288.941102 C1179.50336,252.082028 1175.22105,187.829058 1217.15775,188.33938 C1273.44687,187.829058 1277.0053,253.275369 1276.72456,319.386359 C1277.0053,359.042514 1330.02764,372.334634 1356.14697,372.334634 C1382.13721,372.334634 1443.01871,358.427411 1448.80645,323.35748 C1455.73883,287.46308 1457.7887,266.132493 1472.63318,255.84843 C1487.60649,246.255403 1570.93972,266.646483 1578.52972,234.66912 C1587.11979,203.088665 1580.66712,125.842701 1605.00386,103.622141 C1629.42619,81.9428952 1671.34957,69.3964824 1734.72713,86.4139515 C1797.18704,103.892798 1785.65811,101.516647 1808.85472,100.974727 C1814.077,101.093917 1818.97899,99.0431203 1824,95.7720915 M22,105.772091 C39.8079525,94.170766 59.1129859,67.2201286 99.5141996,67.2924005 L99.5141996,67.2924005 C152.530178,67.1997513 125.877687,187.907365 132.606871,219.51869 C138.320006,252.274086 156.280552,282.186622 182.907732,281.732912 C209.795992,282.186622 234.185578,243.316546 234.5323,224.813517 C234.185578,206.519914 201.066165,111.516647 223.942645,91.119124 C236.02237,79.3846893 271.984214,121.492484 327.19178,144.067399 C382.51336,166.522635 436.318268,161.609398 454.267639,155.98076 C494.125705,143.523061 517.873865,62.7887056 538.984878,39.4945563 C560.016117,15.628012 594.257748,19.8747495 617.083583,24.9337808 C640.794378,29.8175078 798.855338,63.8973652 807.697372,120.240675 C815.426541,176.780113 808.218488,179.308565 826.229268,189.073432 C843.07045,197.829058 878.705318,173.503005 896.385731,173.18895 C937.798677,172.904863 939.57222,218.460709 1000.80388,218.194983 C1028.99072,218.173796 1060.9551,251.915891 1076.25517,293.646274 C1092.51136,335.346675 1096.77946,367.50897 1123.90862,367.773858 C1150.96837,367.50897 1176.48018,336.913923 1183.47542,298.941102 C1189.50336,262.082028 1185.22105,197.829058 1227.15775,198.33938 C1283.44687,197.829058 1287.0053,263.275369 1286.72456,329.386359 C1287.0053,369.042514 1340.02764,382.334634 1366.14697,382.334634 C1392.13721,382.334634 1453.01871,368.427411 1458.80645,333.35748 C1465.73883,297.46308 1467.7887,276.132493 1482.63318,265.84843 C1497.60649,256.255403 1580.93972,276.646483 1588.52972,244.66912 C1597.11979,213.088665 1590.66712,135.842701 1615.00386,113.622141 C1639.42619,91.9428952 1681.34957,79.3964824 1744.72713,96.4139515 C1807.18704,113.892798 1795.65811,111.516647 1818.85472,110.974727 C1824.077,111.093917 1828.97899,109.04312 1834,105.772092 M32,115.772091 C49.8079525,104.170766 69.1129859,77.2201286 109.5142,77.2924005 L109.5142,77.2924005 C162.530178,77.1997513 135.877687,197.907365 142.606871,229.51869 C148.320006,262.274086 166.280552,292.186622 192.907732,291.732912 C219.795992,292.186622 244.185578,253.316546 244.5323,234.813517 C244.185578,216.519914 211.066165,121.516647 233.942645,101.119124 C246.02237,89.3846893 281.984214,131.492484 337.19178,154.067399 C392.51336,176.522635 446.318268,171.609398 464.267639,165.98076 C504.125705,153.523061 527.873865,72.7887056 548.984878,49.4945563 C570.016117,25.628012 604.257748,29.8747495 627.083583,34.9337808 C650.794378,39.8175078 808.855338,73.8973652 817.697372,130.240675 C825.426541,186.780113 818.218488,189.308565 836.229268,199.073432 C853.07045,207.829058 888.705318,183.503005 906.385731,183.18895 C947.798677,182.904863 949.57222,228.460709 1010.80388,228.194983 C1038.99072,228.173796 1070.9551,261.915891 1086.25517,303.646274 C1102.51136,345.346675 1106.77946,377.50897 1133.90862,377.773858 C1160.96837,377.50897 1186.48018,346.913923 1193.47542,308.941102 C1199.50336,272.082028 1195.22105,207.829058 1237.15775,208.33938 C1293.44687,207.829058 1297.0053,273.275369 1296.72456,339.386359 C1297.0053,379.042514 1350.02764,392.334634 1376.14697,392.334634 C1402.13721,392.334634 1463.01871,378.427411 1468.80645,343.35748 C1475.73883,307.46308 1477.7887,286.132493 1492.63318,275.84843 C1507.60649,266.255403 1590.93972,286.646483 1598.52972,254.66912 C1607.11979,223.088665 1600.66712,145.842701 1625.00386,123.622141 C1649.42619,101.942895 1691.34957,89.3964824 1754.72713,106.413951 C1817.18704,123.892798 1805.65811,121.516647 1828.85472,120.974727 C1834.077,121.093917 1838.97899,119.04312 1844,115.772092 M42,125.772091 C59.8079525,114.170766 79.1129859,87.2201286 119.5142,87.2924005 L119.5142,87.2924005 C172.530178,87.1997513 145.877687,207.907365 152.606871,239.51869 C158.320006,272.274086 176.280552,302.186622 202.907732,301.732912 C229.795992,302.186622 254.185578,263.316546 254.5323,244.813517 C254.185578,226.519914 221.066165,131.516647 243.942645,111.119124 C256.02237,99.3846893 291.984214,141.492484 347.19178,164.067399 C402.51336,186.522635 456.318268,181.609398 474.267639,175.98076 C514.125705,163.523061 537.873865,82.7887056 558.984878,59.4945563 C580.016117,35.628012 614.257748,39.8747495 637.083583,44.9337808 C660.794378,49.8175078 818.855338,83.8973652 827.697372,140.240675 C835.426541,196.780113 828.218488,199.308565 846.229268,209.073432 C863.07045,217.829058 898.705318,193.503005 916.385731,193.18895 C957.798677,192.904863 959.57222,238.460709 1020.80388,238.194983 C1048.99072,238.173796 1080.9551,271.915891 1096.25517,313.646274 C1112.51136,355.346675 1116.77946,387.50897 1143.90862,387.773858 C1170.96837,387.50897 1196.48018,356.913923 1203.47542,318.941102 C1209.50336,282.082028 1205.22105,217.829058 1247.15775,218.33938 C1303.44687,217.829058 1307.0053,283.275369 1306.72456,349.386359 C1307.0053,389.042514 1360.02764,402.334634 1386.14697,402.334634 C1412.13721,402.334634 1473.01871,388.427411 1478.80645,353.35748 C1485.73883,317.46308 1487.7887,296.132493 1502.63318,285.84843 C1517.60649,276.255403 1600.93972,296.646483 1608.52972,264.66912 C1617.11979,233.088665 1610.66712,155.842701 1635.00386,133.622141 C1659.42619,111.942895 1701.34957,99.3964824 1764.72713,116.413951 C1827.18704,133.892798 1815.65811,131.516647 1838.85472,130.974727 C1844.077,131.093917 1848.97899,129.04312 1854,125.772092 M52,135.772091 C69.8079525,124.170766 89.1129859,97.2201286 129.5142,97.2924005 L129.5142,97.2924005 C182.530178,97.1997513 155.877687,217.907365 162.606871,249.51869 C168.320006,282.274086 186.280552,312.186622 212.907732,311.732912 C239.795992,312.186622 264.185578,273.316546 264.5323,254.813517 C264.185578,236.519914 231.066165,141.516647 253.942645,121.119124 C266.02237,109.384689 301.984214,151.492484 357.19178,174.067399 C412.51336,196.522635 466.318268,191.609398 484.267639,185.98076 C524.125705,173.523061 547.873865,92.7887056 568.984878,69.4945563 C590.016117,45.628012 624.257748,49.8747495 647.083583,54.9337808 C670.794378,59.8175078 828.855338,93.8973652 837.697372,150.240675 C845.426541,206.780113 838.218488,209.308565 856.229268,219.073432 C873.07045,227.829058 908.705318,203.503005 926.385731,203.18895 C967.798677,202.904863 969.57222,248.460709 1030.80388,248.194983 C1058.99072,248.173796 1090.9551,281.915891 1106.25517,323.646274 C1122.51136,365.346675 1126.77946,397.50897 1153.90862,397.773858 C1180.96837,397.50897 1206.48018,366.913923 1213.47542,328.941102 C1219.50336,292.082028 1215.22105,227.829058 1257.15775,228.33938 C1313.44687,227.829058 1317.0053,293.275369 1316.72456,359.386359 C1317.0053,399.042514 1370.02764,412.334634 1396.14697,412.334634 C1422.13721,412.334634 1483.01871,398.427411 1488.80645,363.35748 C1495.73883,327.46308 1497.7887,306.132493 1512.63318,295.84843 C1527.60649,286.255403 1610.93972,306.646483 1618.52972,274.66912 C1627.11979,243.088665 1620.66712,165.842701 1645.00386,143.622141 C1669.42619,121.942895 1711.34957,109.396482 1774.72713,126.413951 C1837.18704,143.892798 1825.65811,141.516647 1848.85472,140.974727 C1854.077,141.093917 1858.97899,139.04312 1864,135.772092 M62,145.772091 C79.8079525,134.170766 99.1129859,107.220129 139.5142,107.2924 L139.5142,107.2924 C192.530178,107.199751 165.877687,227.907365 172.606871,259.51869 C178.320006,292.274086 196.280552,322.186622 222.907732,321.732912 C249.795992,322.186622 274.185578,283.316546 274.5323,264.813517 C274.185578,246.519914 241.066165,151.516647 263.942645,131.119124 C276.02237,119.384689 311.984214,161.492484 367.19178,184.067399 C422.51336,206.522635 476.318268,201.609398 494.267639,195.98076 C534.125705,183.523061 557.873865,102.788706 578.984878,79.4945563 C600.016117,55.628012 634.257748,59.8747495 657.083583,64.9337808 C680.794378,69.8175078 838.855338,103.897365 847.697372,160.240675 C855.426541,216.780113 848.218488,219.308565 866.229268,229.073432 C883.07045,237.829058 918.705318,213.503005 936.385731,213.18895 C977.798677,212.904863 979.57222,258.460709 1040.80388,258.194983 C1068.99072,258.173796 1100.9551,291.915891 1116.25517,333.646274 C1132.51136,375.346675 1136.77946,407.50897 1163.90862,407.773858 C1190.96837,407.50897 1216.48018,376.913923 1223.47542,338.941102 C1229.50336,302.082028 1225.22105,237.829058 1267.15775,238.33938 C1323.44687,237.829058 1327.0053,303.275369 1326.72456,369.386359 C1327.0053,409.042514 1380.02764,422.334634 1406.14697,422.334634 C1432.13721,422.334634 1493.01871,408.427411 1498.80645,373.35748 C1505.73883,337.46308 1507.7887,316.132493 1522.63318,305.84843 C1537.60649,296.255403 1620.93972,316.646483 1628.52972,284.66912 C1637.11979,253.088665 1630.66712,175.842701 1655.00386,153.622141 C1679.42619,131.942895 1721.34957,119.396482 1784.72713,136.413951 C1847.18704,153.892798 1835.65811,151.516647 1858.85472,150.974727 C1864.077,151.093917 1868.97899,149.04312 1874,145.772092 M72,155.772091 C89.8079525,144.170766 109.112986,117.220129 149.5142,117.2924 L149.5142,117.2924 C202.530178,117.199751 175.877687,237.907365 182.606871,269.51869 C188.320006,302.274086 206.280552,332.186622 232.907732,331.732912 C259.795992,332.186622 284.185578,293.316546 284.5323,274.813517 C284.185578,256.519914 251.066165,161.516647 273.942645,141.119124 C286.02237,129.384689 321.984214,171.492484 377.19178,194.067399 C432.51336,216.522635 486.318268,211.609398 504.267639,205.98076 C544.125705,193.523061 567.873865,112.788706 588.984878,89.4945563 C610.016117,65.628012 644.257748,69.8747495 667.083583,74.9337808 C690.794378,79.8175078 848.855338,113.897365 857.697372,170.240675 C865.426541,226.780113 858.218488,229.308565 876.229268,239.073432 C893.07045,247.829058 928.705318,223.503005 946.385731,223.18895 C987.798677,222.904863 989.57222,268.460709 1050.80388,268.194983 C1078.99072,268.173796 1110.9551,301.915891 1126.25517,343.646274 C1142.51136,385.346675 1146.77946,417.50897 1173.90862,417.773858 C1200.96837,417.50897 1226.48018,386.913923 1233.47542,348.941102 C1239.50336,312.082028 1235.22105,247.829058 1277.15775,248.33938 C1333.44687,247.829058 1337.0053,313.275369 1336.72456,379.386359 C1337.0053,419.042514 1390.02764,432.334634 1416.14697,432.334634 C1442.13721,432.334634 1503.01871,418.427411 1508.80645,383.35748 C1515.73883,347.46308 1517.7887,326.132493 1532.63318,315.84843 C1547.60649,306.255403 1630.93972,326.646483 1638.52972,294.66912 C1647.11979,263.088665 1640.66712,185.842701 1665.00386,163.622141 C1689.42619,141.942895 1731.34957,129.396482 1794.72713,146.413951 C1857.18704,163.892798 1845.65811,161.516647 1868.85472,160.974727 C1874.077,161.093917 1878.97899,159.04312 1884,155.772092 M82,165.772091 C99.8079525,154.170766 119.112986,127.220129 159.5142,127.2924 L159.5142,127.2924 C212.530178,127.199751 185.877687,247.907365 192.606871,279.51869 C198.320006,312.274086 216.280552,342.186622 242.907732,341.732912 C269.795992,342.186622 294.185578,303.316546 294.5323,284.813517 C294.185578,266.519914 261.066165,171.516647 283.942645,151.119124 C296.02237,139.384689 331.984214,181.492484 387.19178,204.067399 C442.51336,226.522635 496.318268,221.609398 514.267639,215.98076 C554.125705,203.523061 577.873865,122.788706 598.984878,99.4945563 C620.016117,75.628012 654.257748,79.8747495 677.083583,84.9337808 C700.794378,89.8175078 858.855338,123.897365 867.697372,180.240675 C875.426541,236.780113 868.218488,239.308565 886.229268,249.073432 C903.07045,257.829058 938.705318,233.503005 956.385731,233.18895 C997.798677,232.904863 999.57222,278.460709 1060.80388,278.194983 C1088.99072,278.173796 1120.9551,311.915891 1136.25517,353.646274 C1152.51136,395.346675 1156.77946,427.50897 1183.90862,427.773858 C1210.96837,427.50897 1236.48018,396.913923 1243.47542,358.941102 C1249.50336,322.082028 1245.22105,257.829058 1287.15775,258.33938 C1343.44687,257.829058 1347.0053,323.275369 1346.72456,389.386359 C1347.0053,429.042514 1400.02764,442.334634 1426.14697,442.334634 C1452.13721,442.334634 1513.01871,428.427411 1518.80645,393.35748 C1525.73883,357.46308 1527.7887,336.132493 1542.63318,325.84843 C1557.60649,316.255403 1640.93972,336.646483 1648.52972,304.66912 C1657.11979,273.088665 1650.66712,195.842701 1675.00386,173.622141 C1699.42619,151.942895 1741.34957,139.396482 1804.72713,156.413951 C1867.18704,173.892798 1855.65811,171.516647 1878.85472,170.974727 C1884.077,171.093917 1888.97899,169.04312 1894,165.772092 M92,175.772091 C109.807952,164.170766 129.112986,137.220129 169.5142,137.2924 L169.5142,137.2924 C222.530178,137.199751 195.877687,257.907365 202.606871,289.51869 C208.320006,322.274086 226.280552,352.186622 252.907732,351.732912 C279.795992,352.186622 304.185578,313.316546 304.5323,294.813517 C304.185578,276.519914 271.066165,181.516647 293.942645,161.119124 C306.02237,149.384689 341.984214,191.492484 397.19178,214.067399 C452.51336,236.522635 506.318268,231.609398 524.267639,225.98076 C564.125705,213.523061 587.873865,132.788706 608.984878,109.494556 C630.016117,85.628012 664.257748,89.8747495 687.083583,94.9337808 C710.794378,99.8175078 868.855338,133.897365 877.697372,190.240675 C885.426541,246.780113 878.218488,249.308565 896.229268,259.073432 C913.07045,267.829058 948.705318,243.503005 966.385731,243.18895 C1007.79868,242.904863 1009.57222,288.460709 1070.80388,288.194983 C1098.99072,288.173796 1130.9551,321.915891 1146.25517,363.646274 C1162.51136,405.346675 1166.77946,437.50897 1193.90862,437.773858 C1220.96837,437.50897 1246.48018,406.913923 1253.47542,368.941102 C1259.50336,332.082028 1255.22105,267.829058 1297.15775,268.33938 C1353.44687,267.829058 1357.0053,333.275369 1356.72456,399.386359 C1357.0053,439.042514 1410.02764,452.334634 1436.14697,452.334634 C1462.13721,452.334634 1523.01871,438.427411 1528.80645,403.35748 C1535.73883,367.46308 1537.7887,346.132493 1552.63318,335.84843 C1567.60649,326.255403 1650.93972,346.646483 1658.52972,314.66912 C1667.11979,283.088665 1660.66712,205.842701 1685.00386,183.622141 C1709.42619,161.942895 1751.34957,149.396482 1814.72713,166.413951 C1877.18704,183.892798 1865.65811,181.516647 1888.85472,180.974727 C1894.077,181.093917 1898.97899,179.04312 1904,175.772092 M102,185.772091 C119.807952,174.170766 139.112986,147.220129 179.5142,147.2924 L179.5142,147.2924 C232.530178,147.199751 205.877687,267.907365 212.606871,299.51869 C218.320006,332.274086 236.280552,362.186622 262.907732,361.732912 C289.795992,362.186622 314.185578,323.316546 314.5323,304.813517 C314.185578,286.519914 281.066165,191.516647 303.942645,171.119124 C316.02237,159.384689 351.984214,201.492484 407.19178,224.067399 C462.51336,246.522635 516.318268,241.609398 534.267639,235.98076 C574.125705,223.523061 597.873865,142.788706 618.984878,119.494556 C640.016117,95.628012 674.257748,99.8747495 697.083583,104.933781 C720.794378,109.817508 878.855338,143.897365 887.697372,200.240675 C895.426541,256.780113 888.218488,259.308565 906.229268,269.073432 C923.07045,277.829058 958.705318,253.503005 976.385731,253.18895 C1017.79868,252.904863 1019.57222,298.460709 1080.80388,298.194983 C1108.99072,298.173796 1140.9551,331.915891 1156.25517,373.646274 C1172.51136,415.346675 1176.77946,447.50897 1203.90862,447.773858 C1230.96837,447.50897 1256.48018,416.913923 1263.47542,378.941102 C1269.50336,342.082028 1265.22105,277.829058 1307.15775,278.33938 C1363.44687,277.829058 1367.0053,343.275369 1366.72456,409.386359 C1367.0053,449.042514 1420.02764,462.334634 1446.14697,462.334634 C1472.13721,462.334634 1533.01871,448.427411 1538.80645,413.35748 C1545.73883,377.46308 1547.7887,356.132493 1562.63318,345.84843 C1577.60649,336.255403 1660.93972,356.646483 1668.52972,324.66912 C1677.11979,293.088665 1670.66712,215.842701 1695.00386,193.622141 C1719.42619,171.942895 1761.34957,159.396482 1824.72713,176.413951 C1887.18704,193.892798 1875.65811,191.516647 1898.85472,190.974727 C1904.077,191.093917 1908.97899,189.04312 1914,185.772092 M112,195.772091 C129.807952,184.170766 149.112986,157.220129 189.5142,157.2924 L189.5142,157.2924 C242.530178,157.199751 215.877687,277.907365 222.606871,309.51869 C228.320006,342.274086 246.280552,372.186622 272.907732,371.732912 C299.795992,372.186622 324.185578,333.316546 324.5323,314.813517 C324.185578,296.519914 291.066165,201.516647 313.942645,181.119124 C326.02237,169.384689 361.984214,211.492484 417.19178,234.067399 C472.51336,256.522635 526.318268,251.609398 544.267639,245.98076 C584.125705,233.523061 607.873865,152.788706 628.984878,129.494556 C650.016117,105.628012 684.257748,109.874749 707.083583,114.933781 C730.794378,119.817508 888.855338,153.897365 897.697372,210.240675 C905.426541,266.780113 898.218488,269.308565 916.229268,279.073432 C933.07045,287.829058 968.705318,263.503005 986.385731,263.18895 C1027.79868,262.904863 1029.57222,308.460709 1090.80388,308.194983 C1118.99072,308.173796 1150.9551,341.915891 1166.25517,383.646274 C1182.51136,425.346675 1186.77946,457.50897 1213.90862,457.773858 C1240.96837,457.50897 1266.48018,426.913923 1273.47542,388.941102 C1279.50336,352.082028 1275.22105,287.829058 1317.15775,288.33938 C1373.44687,287.829058 1377.0053,353.275369 1376.72456,419.386359 C1377.0053,459.042514 1430.02764,472.334634 1456.14697,472.334634 C1482.13721,472.334634 1543.01871,458.427411 1548.80645,423.35748 C1555.73883,387.46308 1557.7887,366.132493 1572.63318,355.84843 C1587.60649,346.255403 1670.93972,366.646483 1678.52972,334.66912 C1687.11979,303.088665 1680.66712,225.842701 1705.00386,203.622141 C1729.42619,181.942895 1771.34957,169.396482 1834.72713,186.413951 C1897.18704,203.892798 1885.65811,201.516647 1908.85472,200.974727 C1914.077,201.093917 1918.97899,199.04312 1924,195.772092 M122,205.772091 C139.807952,194.170766 159.112986,167.220129 199.5142,167.2924 L199.5142,167.2924 C252.530178,167.199751 225.877687,287.907365 232.606871,319.51869 C238.320006,352.274086 256.280552,382.186622 282.907732,381.732912 C309.795992,382.186622 334.185578,343.316546 334.5323,324.813517 C334.185578,306.519914 301.066165,211.516647 323.942645,191.119124 C336.02237,179.384689 371.984214,221.492484 427.19178,244.067399 C482.51336,266.522635 536.318268,261.609398 554.267639,255.98076 C594.125705,243.523061 617.873865,162.788706 638.984878,139.494556 C660.016117,115.628012 694.257748,119.874749 717.083583,124.933781 C740.794378,129.817508 898.855338,163.897365 907.697372,220.240675 C915.426541,276.780113 908.218488,279.308565 926.229268,289.073432 C943.07045,297.829058 978.705318,273.503005 996.385731,273.18895 C1037.79868,272.904863 1039.57222,318.460709 1100.80388,318.194983 C1128.99072,318.173796 1160.9551,351.915891 1176.25517,393.646274 C1192.51136,435.346675 1196.77946,467.50897 1223.90862,467.773858 C1250.96837,467.50897 1276.48018,436.913923 1283.47542,398.941102 C1289.50336,362.082028 1285.22105,297.829058 1327.15775,298.33938 C1383.44687,297.829058 1387.0053,363.275369 1386.72456,429.386359 C1387.0053,469.042514 1440.02764,482.334634 1466.14697,482.334634 C1492.13721,482.334634 1553.01871,468.427411 1558.80645,433.35748 C1565.73883,397.46308 1567.7887,376.132493 1582.63318,365.84843 C1597.60649,356.255403 1680.93972,376.646483 1688.52972,344.66912 C1697.11979,313.088665 1690.66712,235.842701 1715.00386,213.622141 C1739.42619,191.942895 1781.34957,179.396482 1844.72713,196.413951 C1907.18704,213.892798 1895.65811,211.516647 1918.85472,210.974727 C1924.077,211.093917 1928.97899,209.04312 1934,205.772092 M132,215.772091 C149.807952,204.170766 169.112986,177.220129 209.5142,177.2924 L209.5142,177.2924 C262.530178,177.199751 235.877687,297.907365 242.606871,329.51869 C248.320006,362.274086 266.280552,392.186622 292.907732,391.732912 C319.795992,392.186622 344.185578,353.316546 344.5323,334.813517 C344.185578,316.519914 311.066165,221.516647 333.942645,201.119124 C346.02237,189.384689 381.984214,231.492484 437.19178,254.067399 C492.51336,276.522635 546.318268,271.609398 564.267639,265.98076 C604.125705,253.523061 627.873865,172.788706 648.984878,149.494556 C670.016117,125.628012 704.257748,129.874749 727.083583,134.933781 C750.794378,139.817508 908.855338,173.897365 917.697372,230.240675 C925.426541,286.780113 918.218488,289.308565 936.229268,299.073432 C953.07045,307.829058 988.705318,283.503005 1006.38573,283.18895 C1047.79868,282.904863 1049.57222,328.460709 1110.80388,328.194983 C1138.99072,328.173796 1170.9551,361.915891 1186.25517,403.646274 C1202.51136,445.346675 1206.77946,477.50897 1233.90862,477.773858 C1260.96837,477.50897 1286.48018,446.913923 1293.47542,408.941102 C1299.50336,372.082028 1295.22105,307.829058 1337.15775,308.33938 C1393.44687,307.829058 1397.0053,373.275369 1396.72456,439.386359 C1397.0053,479.042514 1450.02764,492.334634 1476.14697,492.334634 C1502.13721,492.334634 1563.01871,478.427411 1568.80645,443.35748 C1575.73883,407.46308 1577.7887,386.132493 1592.63318,375.84843 C1607.60649,366.255403 1690.93972,386.646483 1698.52972,354.66912 C1707.11979,323.088665 1700.66712,245.842701 1725.00386,223.622141 C1749.42619,201.942895 1791.34957,189.396482 1854.72713,206.413951 C1917.18704,223.892798 1905.65811,221.516647 1928.85472,220.974727 C1934.077,221.093917 1938.97899,219.04312 1944,215.772092 M142,225.772091 C159.807952,214.170766 179.112986,187.220129 219.5142,187.2924 L219.5142,187.2924 C272.530178,187.199751 245.877687,307.907365 252.606871,339.51869 C258.320006,372.274086 276.280552,402.186622 302.907732,401.732912 C329.795992,402.186622 354.185578,363.316546 354.5323,344.813517 C354.185578,326.519914 321.066165,231.516647 343.942645,211.119124 C356.02237,199.384689 391.984214,241.492484 447.19178,264.067399 C502.51336,286.522635 556.318268,281.609398 574.267639,275.98076 C614.125705,263.523061 637.873865,182.788706 658.984878,159.494556 C680.016117,135.628012 714.257748,139.874749 737.083583,144.933781 C760.794378,149.817508 918.855338,183.897365 927.697372,240.240675 C935.426541,296.780113 928.218488,299.308565 946.229268,309.073432 C963.07045,317.829058 998.705318,293.503005 1016.38573,293.18895 C1057.79868,292.904863 1059.57222,338.460709 1120.80388,338.194983 C1148.99072,338.173796 1180.9551,371.915891 1196.25517,413.646274 C1212.51136,455.346675 1216.77946,487.50897 1243.90862,487.773858 C1270.96837,487.50897 1296.48018,456.913923 1303.47542,418.941102 C1309.50336,382.082028 1305.22105,317.829058 1347.15775,318.33938 C1403.44687,317.829058 1407.0053,383.275369 1406.72456,449.386359 C1407.0053,489.042514 1460.02764,502.334634 1486.14697,502.334634 C1512.13721,502.334634 1573.01871,488.427411 1578.80645,453.35748 C1585.73883,417.46308 1587.7887,396.132493 1602.63318,385.84843 C1617.60649,376.255403 1700.93972,396.646483 1708.52972,364.66912 C1717.11979,333.088665 1710.66712,255.842701 1735.00386,233.622141 C1759.42619,211.942895 1801.34957,199.396482 1864.72713,216.413951 C1927.18704,233.892798 1915.65811,231.516647 1938.85472,230.974727 C1944.077,231.093917 1948.97899,229.04312 1954,225.772092 M152,235.772091 C169.807952,224.170766 189.112986,197.220129 229.5142,197.2924 L229.5142,197.2924 C282.530178,197.199751 255.877687,317.907365 262.606871,349.51869 C268.320006,382.274086 286.280552,412.186622 312.907732,411.732912 C339.795992,412.186622 364.185578,373.316546 364.5323,354.813517 C364.185578,336.519914 331.066165,241.516647 353.942645,221.119124 C366.02237,209.384689 401.984214,251.492484 457.19178,274.067399 C512.51336,296.522635 566.318268,291.609398 584.267639,285.98076 C624.125705,273.523061 647.873865,192.788706 668.984878,169.494556 C690.016117,145.628012 724.257748,149.874749 747.083583,154.933781 C770.794378,159.817508 928.855338,193.897365 937.697372,250.240675 C945.426541,306.780113 938.218488,309.308565 956.229268,319.073432 C973.07045,327.829058 1008.70532,303.503005 1026.38573,303.18895 C1067.79868,302.904863 1069.57222,348.460709 1130.80388,348.194983 C1158.99072,348.173796 1190.9551,381.915891 1206.25517,423.646274 C1222.51136,465.346675 1226.77946,497.50897 1253.90862,497.773858 C1280.96837,497.50897 1306.48018,466.913923 1313.47542,428.941102 C1319.50336,392.082028 1315.22105,327.829058 1357.15775,328.33938 C1413.44687,327.829058 1417.0053,393.275369 1416.72456,459.386359 C1417.0053,499.042514 1470.02764,512.334634 1496.14697,512.334634 C1522.13721,512.334634 1583.01871,498.427411 1588.80645,463.35748 C1595.73883,427.46308 1597.7887,406.132493 1612.63318,395.84843 C1627.60649,386.255403 1710.93972,406.646483 1718.52972,374.66912 C1727.11979,343.088665 1720.66712,265.842701 1745.00386,243.622141 C1769.42619,221.942895 1811.34957,209.396482 1874.72713,226.413951 C1937.18704,243.892798 1925.65811,241.516647 1948.85472,240.974727 C1954.077,241.093917 1958.97899,239.04312 1964,235.772092 M162,245.772091 C179.807952,234.170766 199.112986,207.220129 239.5142,207.2924 L239.5142,207.2924 C292.530178,207.199751 265.877687,327.907365 272.606871,359.51869 C278.320006,392.274086 296.280552,422.186622 322.907732,421.732912 C349.795992,422.186622 374.185578,383.316546 374.5323,364.813517 C374.185578,346.519914 341.066165,251.516647 363.942645,231.119124 C376.02237,219.384689 411.984214,261.492484 467.19178,284.067399 C522.51336,306.522635 576.318268,301.609398 594.267639,295.98076 C634.125705,283.523061 657.873865,202.788706 678.984878,179.494556 C700.016117,155.628012 734.257748,159.874749 757.083583,164.933781 C780.794378,169.817508 938.855338,203.897365 947.697372,260.240675 C955.426541,316.780113 948.218488,319.308565 966.229268,329.073432 C983.07045,337.829058 1018.70532,313.503005 1036.38573,313.18895 C1077.79868,312.904863 1079.57222,358.460709 1140.80388,358.194983 C1168.99072,358.173796 1200.9551,391.915891 1216.25517,433.646274 C1232.51136,475.346675 1236.77946,507.50897 1263.90862,507.773858 C1290.96837,507.50897 1316.48018,476.913923 1323.47542,438.941102 C1329.50336,402.082028 1325.22105,337.829058 1367.15775,338.33938 C1423.44687,337.829058 1427.0053,403.275369 1426.72456,469.386359 C1427.0053,509.042514 1480.02764,522.334634 1506.14697,522.334634 C1532.13721,522.334634 1593.01871,508.427411 1598.80645,473.35748 C1605.73883,437.46308 1607.7887,416.132493 1622.63318,405.84843 C1637.60649,396.255403 1720.93972,416.646483 1728.52972,384.66912 C1737.11979,353.088665 1730.66712,275.842701 1755.00386,253.622141 C1779.42619,231.942895 1821.34957,219.396482 1884.72713,236.413951 C1947.18704,253.892798 1935.65811,251.516647 1958.85472,250.974727 C1964.077,251.093917 1968.97899,249.04312 1974,245.772092 M172,255.772091 C189.807952,244.170766 209.112986,217.220129 249.5142,217.2924 L249.5142,217.2924 C302.530178,217.199751 275.877687,337.907365 282.606871,369.51869 C288.320006,402.274086 306.280552,432.186622 332.907732,431.732912 C359.795992,432.186622 384.185578,393.316546 384.5323,374.813517 C384.185578,356.519914 351.066165,261.516647 373.942645,241.119124 C386.02237,229.384689 421.984214,271.492484 477.19178,294.067399 C532.51336,316.522635 586.318268,311.609398 604.267639,305.98076 C644.125705,293.523061 667.873865,212.788706 688.984878,189.494556 C710.016117,165.628012 744.257748,169.874749 767.083583,174.933781 C790.794378,179.817508 948.855338,213.897365 957.697372,270.240675 C965.426541,326.780113 958.218488,329.308565 976.229268,339.073432 C993.07045,347.829058 1028.70532,323.503005 1046.38573,323.18895 C1087.79868,322.904863 1089.57222,368.460709 1150.80388,368.194983 C1178.99072,368.173796 1210.9551,401.915891 1226.25517,443.646274 C1242.51136,485.346675 1246.77946,517.50897 1273.90862,517.773858 C1300.96837,517.50897 1326.48018,486.913923 1333.47542,448.941102 C1339.50336,412.082028 1335.22105,347.829058 1377.15775,348.33938 C1433.44687,347.829058 1437.0053,413.275369 1436.72456,479.386359 C1437.0053,519.042514 1490.02764,532.334634 1516.14697,532.334634 C1542.13721,532.334634 1603.01871,518.427411 1608.80645,483.35748 C1615.73883,447.46308 1617.7887,426.132493 1632.63318,415.84843 C1647.60649,406.255403 1730.93972,426.646483 1738.52972,394.66912 C1747.11979,363.088665 1740.66712,285.842701 1765.00386,263.622141 C1789.42619,241.942895 1831.34957,229.396482 1894.72713,246.413951 C1957.18704,263.892798 1945.65811,261.516647 1968.85472,260.974727 C1974.077,261.093917 1978.97899,259.04312 1984,255.772092 M182,265.772091 C199.807952,254.170766 219.112986,227.220129 259.5142,227.2924 L259.5142,227.2924 C312.530178,227.199751 285.877687,347.907365 292.606871,379.51869 C298.320006,412.274086 316.280552,442.186622 342.907732,441.732912 C369.795992,442.186622 394.185578,403.316546 394.5323,384.813517 C394.185578,366.519914 361.066165,271.516647 383.942645,251.119124 C396.02237,239.384689 431.984214,281.492484 487.19178,304.067399 C542.51336,326.522635 596.318268,321.609398 614.267639,315.98076 C654.125705,303.523061 677.873865,222.788706 698.984878,199.494556 C720.016117,175.628012 754.257748,179.874749 777.083583,184.933781 C800.794378,189.817508 958.855338,223.897365 967.697372,280.240675 C975.426541,336.780113 968.218488,339.308565 986.229268,349.073432 C1003.07045,357.829058 1038.70532,333.503005 1056.38573,333.18895 C1097.79868,332.904863 1099.57222,378.460709 1160.80388,378.194983 C1188.99072,378.173796 1220.9551,411.915891 1236.25517,453.646274 C1252.51136,495.346675 1256.77946,527.50897 1283.90862,527.773858 C1310.96837,527.50897 1336.48018,496.913923 1343.47542,458.941102 C1349.50336,422.082028 1345.22105,357.829058 1387.15775,358.33938 C1443.44687,357.829058 1447.0053,423.275369 1446.72456,489.386359 C1447.0053,529.042514 1500.02764,542.334634 1526.14697,542.334634 C1552.13721,542.334634 1613.01871,528.427411 1618.80645,493.35748 C1625.73883,457.46308 1627.7887,436.132493 1642.63318,425.84843 C1657.60649,416.255403 1740.93972,436.646483 1748.52972,404.66912 C1757.11979,373.088665 1750.66712,295.842701 1775.00386,273.622141 C1799.42619,251.942895 1841.34957,239.396482 1904.72713,256.413951 C1967.18704,273.892798 1955.65811,271.516647 1978.85472,270.974727 C1984.077,271.093917 1988.97899,269.04312 1994,265.772092 M192,275.772091 C209.807952,264.170766 229.112986,237.220129 269.5142,237.2924 L269.5142,237.2924 C322.530178,237.199751 295.877687,357.907365 302.606871,389.51869 C308.320006,422.274086 326.280552,452.186622 352.907732,451.732912 C379.795992,452.186622 404.185578,413.316546 404.5323,394.813517 C404.185578,376.519914 371.066165,281.516647 393.942645,261.119124 C406.02237,249.384689 441.984214,291.492484 497.19178,314.067399 C552.51336,336.522635 606.318268,331.609398 624.267639,325.98076 C664.125705,313.523061 687.873865,232.788706 708.984878,209.494556 C730.016117,185.628012 764.257748,189.874749 787.083583,194.933781 C810.794378,199.817508 968.855338,233.897365 977.697372,290.240675 C985.426541,346.780113 978.218488,349.308565 996.229268,359.073432 C1013.07045,367.829058 1048.70532,343.503005 1066.38573,343.18895 C1107.79868,342.904863 1109.57222,388.460709 1170.80388,388.194983 C1198.99072,388.173796 1230.9551,421.915891 1246.25517,463.646274 C1262.51136,505.346675 1266.77946,537.50897 1293.90862,537.773858 C1320.96837,537.50897 1346.48018,506.913923 1353.47542,468.941102 C1359.50336,432.082028 1355.22105,367.829058 1397.15775,368.33938 C1453.44687,367.829058 1457.0053,433.275369 1456.72456,499.386359 C1457.0053,539.042514 1510.02764,552.334634 1536.14697,552.334634 C1562.13721,552.334634 1623.01871,538.427411 1628.80645,503.35748 C1635.73883,467.46308 1637.7887,446.132493 1652.63318,435.84843 C1667.60649,426.255403 1750.93972,446.646483 1758.52972,414.66912 C1767.11979,383.088665 1760.66712,305.842701 1785.00386,283.622141 C1809.42619,261.942895 1851.34957,249.396482 1914.72713,266.413951 C1977.18704,283.892798 1965.65811,281.516647 1988.85472,280.974727 C1994.077,281.093917 1998.97899,279.04312 2004,275.772092" id="Combined-Shape" stroke="url(#linearGradient-1)" stroke-width="2" style="mix-blend-mode: overlay;" transform="translate(1003.000000, 276.667317) scale(-1, 1) translate(-1003.000000, -276.667317) "></path>
    </g>
</svg>