<?xml version="1.0" encoding="UTF-8"?>
<svg width="202px" height="40px" viewBox="0 0 202 40" version="1.1" xmlns="http://www.w3.org/2000/svg" xmlns:xlink="http://www.w3.org/1999/xlink">
    <!-- Generator: Sketch 41.2 (35397) - http://www.bohemiancoding.com/sketch -->
    <title>Logomark/White</title>
    <desc>Created with Sketch.</desc>
    <defs></defs>
    <g id="Symbols" stroke="none" stroke-width="1" fill="none" fill-rule="evenodd">
        <g id="Logomark/White" fill="#FFFFFF">
            <path d="M20.577,41.097 C31.863,41.097 41.154,31.977 41.154,20.577 C41.154,9.12 31.863,0 20.577,0 C9.291,0 0,9.12 0,20.577 C0,31.977 9.291,41.097 20.577,41.097 Z M20.577,31.635 C14.535,31.635 9.804,26.79 9.804,20.577 C9.804,14.307 14.535,9.462 20.577,9.462 C26.619,9.462 31.35,14.307 31.35,20.577 C31.35,26.79 26.619,31.635 20.577,31.635 Z M76.255,0.456 L55.051,0.456 C54.538,0.456 54.196,0.798 54.196,1.311 L54.196,39.501 C54.196,40.014 54.538,40.356 55.051,40.356 L63.088,40.356 C63.601,40.356 63.943,40.014 63.943,39.501 L63.943,24.396 L75.514,24.396 C76.027,24.396 76.369,24.054 76.369,23.541 L76.369,16.701 C76.369,16.188 76.027,15.846 75.514,15.846 L63.943,15.846 L63.943,9.006 L76.255,9.006 C76.768,9.006 77.11,8.664 77.11,8.151 L77.11,1.311 C77.11,0.798 76.768,0.456 76.255,0.456 Z M117.341,0.456 L90.836,0.456 C90.323,0.456 89.981,0.798 89.981,1.311 L89.981,8.151 C89.981,8.664 90.323,9.006 90.836,9.006 L99.215,9.006 L99.215,39.501 C99.215,40.014 99.557,40.356 100.07,40.356 L108.107,40.356 C108.62,40.356 108.962,40.014 108.962,39.501 L108.962,9.006 L117.341,9.006 C117.854,9.006 118.196,8.664 118.196,8.151 L118.196,1.311 C118.196,0.798 117.854,0.456 117.341,0.456 Z M153.81,31.806 L140.928,31.806 L140.928,24.396 L152.955,24.396 C153.468,24.396 153.81,24.054 153.81,23.541 L153.81,16.701 C153.81,16.188 153.468,15.846 152.955,15.846 L140.928,15.846 L140.928,9.006 L153.753,9.006 C154.266,9.006 154.608,8.664 154.608,8.151 L154.608,1.311 C154.608,0.798 154.266,0.456 153.753,0.456 L132.036,0.456 C131.523,0.456 131.181,0.798 131.181,1.311 L131.181,39.501 C131.181,40.014 131.523,40.356 132.036,40.356 L153.81,40.356 C154.323,40.356 154.665,40.014 154.665,39.501 L154.665,32.661 C154.665,32.148 154.323,31.806 153.81,31.806 Z M201.337,0.456 L193.3,0.456 C192.787,0.456 192.445,0.798 192.445,1.311 L192.445,24.453 L179.506,1.026 C179.278,0.627 178.936,0.456 178.48,0.456 L169.531,0.456 C169.018,0.456 168.676,0.798 168.676,1.311 L168.676,39.501 C168.676,40.014 169.018,40.356 169.531,40.356 L177.568,40.356 C178.081,40.356 178.423,40.014 178.423,39.501 L178.423,16.416 L191.362,39.786 C191.59,40.185 191.932,40.356 192.388,40.356 L201.337,40.356 C201.85,40.356 202.192,40.014 202.192,39.501 L202.192,1.311 C202.192,0.798 201.85,0.456 201.337,0.456 Z" id="OFTEN"></path>
        </g>
    </g>
</svg>