<?xml version="1.0" encoding="UTF-8"?>
<svg width="40px" height="40px" viewBox="0 0 40 40" version="1.1" xmlns="http://www.w3.org/2000/svg" xmlns:xlink="http://www.w3.org/1999/xlink">
    <!-- Generator: Sketch 41.2 (35397) - http://www.bohemiancoding.com/sketch -->
    <title>Logo/Primary</title>
    <desc>Created with Sketch.</desc>
    <defs></defs>
    <g id="Symbols" stroke="none" stroke-width="1" fill="none" fill-rule="evenodd">
        <g id="Logo/Primary" fill="#FFCDC5">
            <path d="M20,40 C22.209139,40 24,38.209139 24,36 C24,33.790861 22.209139,32 20,32 C17.790861,32 16,33.790861 16,36 C16,38.209139 17.790861,40 20,40 Z M20,24 C22.209139,24 24,22.209139 24,20 C24,17.790861 22.209139,16 20,16 C17.790861,16 16,17.790861 16,20 C16,22.209139 17.790861,24 20,24 Z M36,24 C38.209139,24 40,22.209139 40,20 C40,17.790861 38.209139,16 36,16 C33.790861,16 32,17.790861 32,20 C32,22.209139 33.790861,24 36,24 Z M36,8 C38.209139,8 40,6.209139 40,4 C40,1.790861 38.209139,0 36,0 C33.790861,0 32,1.790861 32,4 C32,6.209139 33.790861,8 36,8 Z M36,40 C38.209139,40 40,38.209139 40,36 C40,33.790861 38.209139,32 36,32 C33.790861,32 32,33.790861 32,36 C32,38.209139 33.790861,40 36,40 Z M4,40 C6.209139,40 8,38.209139 8,36 C8,33.790861 6.209139,32 4,32 C1.790861,32 7.10542736e-15,33.790861 7.10542736e-15,36 C7.10542736e-15,38.209139 1.790861,40 4,40 Z M4,24 C6.209139,24 8,22.209139 8,20 C8,17.790861 6.209139,16 4,16 C1.790861,16 7.10542736e-15,17.790861 7.10542736e-15,20 C7.10542736e-15,22.209139 1.790861,24 4,24 Z M20,8 C22.209139,8 24,6.209139 24,4 C24,1.790861 22.209139,0 20,0 C17.790861,0 16,1.790861 16,4 C16,6.209139 17.790861,8 20,8 Z M4,8 C6.209139,8 8,6.209139 8,4 C8,1.790861 6.209139,0 4,0 C1.790861,0 7.10542736e-15,1.790861 7.10542736e-15,4 C7.10542736e-15,6.209139 1.790861,8 4,8 Z M36,38 C37.1045695,38 38,37.1045695 38,36 C38,34.8954305 37.1045695,34 36,34 C34.8954305,34 34,34.8954305 34,36 C34,37.1045695 34.8954305,38 36,38 Z" id="Combined-Shape"></path>
        </g>
    </g>
</svg>